<svg xmlns="http://www.w3.org/2000/svg" width="24" height="24" fill="none" id="mobile-phone"><path fill="#000" fill-rule="evenodd" d="M4.25 3A2.75 2.75 0 0 1 7 .25h10A2.75 2.75 0 0 1 19.75 3v18A2.75 2.75 0 0 1 17 23.75H7A2.75 2.75 0 0 1 4.25 21V3ZM7 1.75c-.69 0-1.25.56-1.25 1.25v18c0 .69.56 1.25 1.25 1.25h10c.69 0 1.25-.56 1.25-1.25V3c0-.69-.56-1.25-1.25-1.25H7Z" clip-rule="evenodd"></path><path fill="#000" fill-rule="evenodd" d="M7.362.606A.75.75 0 0 1 8 .25h8a.75.75 0 0 1 .67 1.085l-.723 1.448a1.75 1.75 0 0 1-1.565.967H9.618a1.75 1.75 0 0 1-1.565-.967l-.724-1.448a.75.75 0 0 1 .033-.73zM9.214 1.75l.18.362a.25.25 0 0 0 .224.138h4.764a.25.25 0 0 0 .224-.138l.18-.362H9.215zM9.25 20a.75.75 0 0 1 .75-.75h4a.75.75 0 0 1 0 1.5h-4a.75.75 0 0 1-.75-.75z" clip-rule="evenodd"></path></svg>